<?xml version="1.0" standalone="no"?><!DOCTYPE svg PUBLIC "-//W3C//DTD SVG 1.1//EN"
        "http://www.w3.org/Graphics/SVG/1.1/DTD/svg11.dtd">
<svg t="1633674118496" class="icon" viewBox="0 0 1024 1024" version="1.1" xmlns="http://www.w3.org/2000/svg" p-id="1610"
     xmlns:xlink="http://www.w3.org/1999/xlink" width="128" height="128">
    <defs>
        <style type="text/css"></style>
    </defs>
    <path d="M586.322581 17.548387v389.16129c0 14.967742 12.387097 27.354839 27.354838 27.354839h390.193549c0.516129-230.193548-186.83871-416.516129-417.548387-416.516129z m70.709677 77.935484c22.193548 4.645161 43.870968 11.354839 64 19.612903 41.290323 17.548387 78.451613 42.322581 109.935484 74.322581 31.483871 31.483871 57.290323 68.645161 74.322581 109.935484 8.774194 20.645161 15.483871 42.322581 20.129032 63.483871h-268.903226V95.483871z m352 417.548387H512V17.032258C261.677419 17.032258 55.225806 201.290323 20.129032 441.290323 56.774194 203.354839 262.709677 21.16129 510.967742 21.16129v495.483871h497.032258c0 45.935484-6.193548 89.806452-18.064516 132.129033 12.903226-43.354839 19.096774-88.774194 19.096774-135.741936z"
           p-id="1611"></path>
    <path d="M1008 516.645161c0 45.935484-6.193548 89.806452-18.064516 132.129033v0.516129c-59.354839 207.483871-251.354839 359.741935-477.935484 359.741935-274.580645 0-497.032258-222.451613-497.032258-496 0-21.16129 1.548387-42.322581 4.129032-62.967742 0.516129-3.096774 1.032258-6.193548 1.032258-8.774193C56.774194 203.354839 262.709677 21.16129 510.967742 21.16129v495.483871h497.032258z"
           p-id="1612"></path>
    <path d="M990.451613 649.290323c-58.322581 209.032258-250.322581 362.83871-478.451613 362.838709-274.580645 0-497.032258-221.935484-497.032258-495.483871 0-22.709677 1.548387-44.903226 4.645161-66.580645-2.580645 20.645161-4.129032 41.806452-4.129032 62.967742 0 273.548387 222.967742 496 497.032258 496 226.580645 0 418.064516-152.258065 477.935484-359.741935z"
           p-id="1613"></path>
</svg>
