<?xml version="1.0" standalone="no"?><!DOCTYPE svg PUBLIC "-//W3C//DTD SVG 1.1//EN"
        "http://www.w3.org/Graphics/SVG/1.1/DTD/svg11.dtd">
<svg t="1633677675215" class="icon" viewBox="0 0 1024 1024" version="1.1" xmlns="http://www.w3.org/2000/svg" p-id="1193"
     xmlns:xlink="http://www.w3.org/1999/xlink" width="16" height="16">
    <defs>
        <style type="text/css"></style>
    </defs>
    <path d="M482.816 74.24L82.304 392.128c-35.52 28.224-15.872 86.144 29.184 86.144h34.176v368.384c0 62.592 49.92 113.344 111.552 113.344h123.328a39.296 39.296 0 0 0 38.976-39.616v-160c0-21.888 17.408-39.68 38.912-39.68h107.136c21.504 0 38.912 17.792 38.912 39.68v160c0 21.888 17.472 39.616 39.04 39.616h123.264c61.632 0 111.552-50.752 111.552-113.344V478.272h34.176c45.056 0 64.704-57.92 29.184-86.144L541.184 74.24a46.848 46.848 0 0 0-58.368 0"
           p-id="1194"></path>
</svg>
