<?xml version="1.0" standalone="no"?><!DOCTYPE svg PUBLIC "-//W3C//DTD SVG 1.1//EN"
        "http://www.w3.org/Graphics/SVG/1.1/DTD/svg11.dtd">
<svg t="1633674190914" class="icon" viewBox="0 0 1024 1024" version="1.1" xmlns="http://www.w3.org/2000/svg" p-id="1860"
     width="32" height="32" xmlns:xlink="http://www.w3.org/1999/xlink">
    <defs>
        <style type="text/css"></style>
    </defs>
    <path d="M655.744 110.016a235.296 235.296 0 0 1 237.376 233.12 237.408 237.408 0 0 1-474.752 0 235.296 235.296 0 0 1 237.376-233.12zM830.304 566.4a309.376 309.376 0 0 1-353.504-3.2 218.208 218.208 0 0 0-152.832 222.048c0 104.192 148.544 151.584 331.904 151.584s331.84-49.28 331.84-151.616a220.992 220.992 0 0 0-157.408-218.816zM133.536 627.424A149.728 149.728 0 0 0 28.8 779.744c0 71.488 101.888 103.968 227.744 103.968 14.688 0 28.992-0.416 42.944-1.44a163.776 163.776 0 0 1-22.4-83.936 320.864 320.864 0 0 1 29.056-138.08 210.176 210.176 0 0 1-49.472 6.4 212.384 212.384 0 0 1-122.848-39.264z m232.384-44.8a157.76 157.76 0 0 0 43.776-83.2 295.424 295.424 0 0 1-44.448-141.024A163.776 163.776 0 0 0 249.6 310.976a160 160 0 1 0 0 319.808 163.648 163.648 0 0 0 110.496-42.72c1.984-1.728 3.872-3.584 5.824-5.312z"
           p-id="1861"></path>
</svg>
